<svg xmlns="http://www.w3.org/2000/svg" width="128" height="42.872" viewBox="0 0 128 42.872">
  <g id="Group_7" data-name="Group 7" transform="translate(-80 -34)">
    <g id="Group_1" data-name="Group 1" transform="translate(80 34)">
      <path id="Path_1" data-name="Path 1" d="M82.215,7.511H84.03a4.82,4.82,0,0,0,3.048-.775,3.379,3.379,0,0,0,1.378-2.794A3.419,3.419,0,0,0,86.868.972,5.731,5.731,0,0,0,83.742.33H80.55V11.992h1.66V7.511Zm0-5.621h1.527a4.411,4.411,0,0,1,1.831.221,1.9,1.9,0,0,1,1.212,1.82,1.9,1.9,0,0,1-.846,1.61,3.876,3.876,0,0,1-2.091.409H82.21V1.89Z" transform="translate(-36.186 -0.153)" fill="#fff"/>
      <path id="Path_2" data-name="Path 2" d="M102.431,11.992h1.8L99.233.33h-1.6L92.6,11.992h1.8l1.61-3.729h4.808l1.6,3.729ZM100.157,6.7H96.694l1.743-4.111Z" transform="translate(-41.608 -0.153)" fill="#fff"/>
      <path id="Path_3" data-name="Path 3" d="M122.813,4.22A3.726,3.726,0,0,0,120.943.9,6.692,6.692,0,0,0,117.651.32H114.73V11.982H116.4V1.886h1.483a3.943,3.943,0,0,1,2.351.476,2.181,2.181,0,0,1,.918,1.754,2.13,2.13,0,0,1-1.278,2,5.223,5.223,0,0,1-2.124.277h-1.068l4.188,5.588h2.075l-3.164-4.2a3.648,3.648,0,0,0,3.037-3.563Z" transform="translate(-51.545 -0.148)" fill="#fff"/>
      <path id="Path_4" data-name="Path 4" d="M140.091,8.508a4.565,4.565,0,0,1-3.624,1.914,4.5,4.5,0,0,1-4.443-4.442,4.42,4.42,0,0,1,8.011-2.512l.083.127H141.9l-.138-.371a5.3,5.3,0,0,0-2.03-2.235,6.067,6.067,0,0,0-9.372,5,6.086,6.086,0,0,0,6.108,6.063A6.159,6.159,0,0,0,141.8,8.8l.21-.4h-1.831l-.083.116Z" transform="translate(-58.577 -0.01)" fill="#fff"/>
      <path id="Path_5" data-name="Path 5" d="M6.85,40.078h9.837A7.266,7.266,0,0,1,9.871,44.72,7.178,7.178,0,0,1,4.692,32.228,7.509,7.509,0,0,1,9.8,30.3a7.169,7.169,0,0,1,6.063,3.187l.083.133h2.561l-.122-.365A8.289,8.289,0,0,0,15.171,29.6,9.77,9.77,0,0,0,9.8,28.04a9.72,9.72,0,0,0-6.982,2.8A9.448,9.448,0,0,0-.01,37.412a9.7,9.7,0,0,0,9.8,9.565A9.606,9.606,0,0,0,19.475,38.2l.022-.293H6.85v2.163Z" transform="translate(0.01 -12.719)" fill="#fff"/>
      <path id="Path_6" data-name="Path 6" d="M44.147,28.58,36.23,46.914h2.528l2.573-5.969h7.911l2.578,5.969h2.528L46.481,28.58h-2.34Zm4.171,10.2H42.271l3.043-7.17Z" transform="translate(-16.282 -12.96)" fill="#fff"/>
      <path id="Path_7" data-name="Path 7" d="M83.88,42.7,74.337,28.58H71.51V46.914h2.335V31.9L84.008,46.914h2.2V28.58H83.88Z" transform="translate(-32.136 -12.96)" fill="#fff"/>
      <path id="Path_8" data-name="Path 8" d="M114.023,39.666a6.134,6.134,0,0,1-.935,3.806,3.872,3.872,0,0,1-6.279-.221,6.687,6.687,0,0,1-.775-3.579V28.59H103.7V39.671a8.051,8.051,0,0,0,1.483,5.35,6.375,6.375,0,0,0,9.792-.149,7.928,7.928,0,0,0,1.383-5.2V28.59h-2.335V39.671Z" transform="translate(-46.599 -12.964)" fill="#fff"/>
      <path id="Path_9" data-name="Path 9" d="M132.19,46.914h10.274V44.751h-7.939V38.76H142.2V36.591h-7.673V30.743h7.939V28.58H132.19Z" transform="translate(-59.396 -12.96)" fill="#fff"/>
      <path id="Path_10" data-name="Path 10" d="M167.87,42.7,158.333,28.58H155.5V46.914h2.335V31.9L168,46.914h2.207V28.58H167.87Z" transform="translate(-69.886 -12.96)" fill="#fff"/>
      <path id="Path_11" data-name="Path 11" d="M195.157,28.58H184.69v2.163h4.088V46.914h2.335V30.743h4.044Z" transform="translate(-83.063 -12.96)" fill="#fff"/>
      <path id="Path_12" data-name="Path 12" d="M209.867,28.58h-2.34L199.61,46.914h2.528l2.573-5.969h7.917l2.573,5.969h2.528L209.867,28.58Zm1.831,10.2h-6.047l3.043-7.17Z" transform="translate(-89.728 -12.96)" fill="#fff"/>
    </g>
    <g id="Group_2" data-name="Group 2" transform="translate(124.574 71.633)">
      <path id="Path_13" data-name="Path 13" d="M83.81,68.37l.852,1.726,1.9.277-1.378,1.339.326,1.9-1.7-.9-1.7.9.326-1.9L81.06,70.373l1.9-.277Z" transform="translate(-81.06 -68.37)" fill="#fff"/>
      <path id="Path_14" data-name="Path 14" d="M98.82,68.37l.852,1.726,1.9.277L100.2,71.712l.326,1.9-1.7-.9-1.7.9.326-1.9L96.07,70.373l1.9-.277Z" transform="translate(-87.766 -68.37)" fill="#fff"/>
      <path id="Path_15" data-name="Path 15" d="M113.83,68.37l.852,1.726,1.9.277-1.378,1.339.326,1.9-1.7-.9-1.7.9.321-1.9-1.372-1.339,1.9-.277Z" transform="translate(-94.472 -68.37)" fill="#fff"/>
      <path id="Path_16" data-name="Path 16" d="M128.835,68.37l.852,1.726,1.9.277-1.378,1.339.326,1.9-1.7-.9-1.7.9.321-1.9-1.378-1.339,1.9-.277Z" transform="translate(-101.173 -68.37)" fill="#fff"/>
      <path id="Path_17" data-name="Path 17" d="M143.845,68.37,144.7,70.1l1.9.277-1.378,1.339.326,1.9-1.7-.9-1.7.9.326-1.9-1.378-1.339,1.9-.277Z" transform="translate(-107.879 -68.37)" fill="#fff"/>
    </g>
  </g>
</svg>
